<mxfile host="app.diagrams.net" agent="Mozilla/5.0 (Windows NT 10.0; Win64; x64) AppleWebKit/537.36 (KHTML, like Gecko) Chrome/131.0.0.0 Safari/537.36" version="26.0.6">
  <diagram name="Page-1" id="aIvbUOHPUMguuMux5Ka0">
    <mxGraphModel dx="1434" dy="754" grid="1" gridSize="10" guides="1" tooltips="1" connect="1" arrows="1" fold="1" page="1" pageScale="1" pageWidth="850" pageHeight="650" math="0" shadow="0">
      <root>
        <mxCell id="0" />
        <mxCell id="1" parent="0" />
        <mxCell id="0SNLVS-Lxyv-NRHsZCsf-28" value="" style="rounded=0;whiteSpace=wrap;html=1;" vertex="1" parent="1">
          <mxGeometry x="460" y="40" width="100" height="140" as="geometry" />
        </mxCell>
        <mxCell id="0SNLVS-Lxyv-NRHsZCsf-6" value="Apps" style="rounded=0;whiteSpace=wrap;html=1;fillColor=#dae8fc;strokeColor=#6c8ebf;" vertex="1" parent="1">
          <mxGeometry x="480" y="130" width="60" height="30" as="geometry" />
        </mxCell>
        <mxCell id="0SNLVS-Lxyv-NRHsZCsf-14" value="Web Frontend" style="rounded=0;whiteSpace=wrap;html=1;fillColor=#dae8fc;strokeColor=#6c8ebf;" vertex="1" parent="1">
          <mxGeometry x="120" y="120" width="120" height="60" as="geometry" />
        </mxCell>
        <mxCell id="0SNLVS-Lxyv-NRHsZCsf-15" value="Software Layers" style="rounded=0;whiteSpace=wrap;html=1;fillColor=#fff2cc;strokeColor=#d6b656;" vertex="1" parent="1">
          <mxGeometry x="480" y="80" width="60" height="40" as="geometry" />
        </mxCell>
        <mxCell id="0SNLVS-Lxyv-NRHsZCsf-16" value="Runner" style="rounded=0;whiteSpace=wrap;html=1;fillColor=#dae8fc;strokeColor=#6c8ebf;" vertex="1" parent="1">
          <mxGeometry x="280" y="120" width="120" height="60" as="geometry" />
        </mxCell>
        <mxCell id="0SNLVS-Lxyv-NRHsZCsf-37" style="edgeStyle=orthogonalEdgeStyle;rounded=0;orthogonalLoop=1;jettySize=auto;html=1;entryX=0.5;entryY=1;entryDx=0;entryDy=0;" edge="1" parent="1" source="0SNLVS-Lxyv-NRHsZCsf-17" target="0SNLVS-Lxyv-NRHsZCsf-14">
          <mxGeometry relative="1" as="geometry" />
        </mxCell>
        <mxCell id="0SNLVS-Lxyv-NRHsZCsf-38" style="edgeStyle=orthogonalEdgeStyle;rounded=0;orthogonalLoop=1;jettySize=auto;html=1;entryX=0.5;entryY=1;entryDx=0;entryDy=0;" edge="1" parent="1" source="0SNLVS-Lxyv-NRHsZCsf-17" target="0SNLVS-Lxyv-NRHsZCsf-16">
          <mxGeometry relative="1" as="geometry" />
        </mxCell>
        <mxCell id="0SNLVS-Lxyv-NRHsZCsf-17" value="Business" style="rounded=0;whiteSpace=wrap;html=1;fillColor=#fff2cc;strokeColor=#d6b656;" vertex="1" parent="1">
          <mxGeometry x="120" y="220" width="280" height="60" as="geometry" />
        </mxCell>
        <mxCell id="0SNLVS-Lxyv-NRHsZCsf-35" value="" style="edgeStyle=orthogonalEdgeStyle;rounded=0;orthogonalLoop=1;jettySize=auto;html=1;" edge="1" parent="1" source="0SNLVS-Lxyv-NRHsZCsf-18" target="0SNLVS-Lxyv-NRHsZCsf-17">
          <mxGeometry relative="1" as="geometry" />
        </mxCell>
        <mxCell id="0SNLVS-Lxyv-NRHsZCsf-18" value="Service" style="rounded=0;whiteSpace=wrap;html=1;fillColor=#fff2cc;strokeColor=#d6b656;" vertex="1" parent="1">
          <mxGeometry x="120" y="310" width="280" height="60" as="geometry" />
        </mxCell>
        <mxCell id="0SNLVS-Lxyv-NRHsZCsf-30" value="" style="edgeStyle=orthogonalEdgeStyle;rounded=0;orthogonalLoop=1;jettySize=auto;html=1;" edge="1" parent="1" source="0SNLVS-Lxyv-NRHsZCsf-19" target="0SNLVS-Lxyv-NRHsZCsf-18">
          <mxGeometry relative="1" as="geometry" />
        </mxCell>
        <mxCell id="0SNLVS-Lxyv-NRHsZCsf-31" style="edgeStyle=orthogonalEdgeStyle;rounded=0;orthogonalLoop=1;jettySize=auto;html=1;entryX=1;entryY=0.5;entryDx=0;entryDy=0;" edge="1" parent="1" source="0SNLVS-Lxyv-NRHsZCsf-19" target="0SNLVS-Lxyv-NRHsZCsf-17">
          <mxGeometry relative="1" as="geometry" />
        </mxCell>
        <mxCell id="0SNLVS-Lxyv-NRHsZCsf-32" style="edgeStyle=orthogonalEdgeStyle;rounded=0;orthogonalLoop=1;jettySize=auto;html=1;entryX=1;entryY=0.5;entryDx=0;entryDy=0;" edge="1" parent="1" source="0SNLVS-Lxyv-NRHsZCsf-19" target="0SNLVS-Lxyv-NRHsZCsf-20">
          <mxGeometry relative="1" as="geometry" />
        </mxCell>
        <mxCell id="0SNLVS-Lxyv-NRHsZCsf-33" style="edgeStyle=orthogonalEdgeStyle;rounded=0;orthogonalLoop=1;jettySize=auto;html=1;entryX=1;entryY=0.5;entryDx=0;entryDy=0;" edge="1" parent="1" source="0SNLVS-Lxyv-NRHsZCsf-19" target="0SNLVS-Lxyv-NRHsZCsf-16">
          <mxGeometry relative="1" as="geometry" />
        </mxCell>
        <mxCell id="0SNLVS-Lxyv-NRHsZCsf-19" value="Utilities&lt;div&gt;(cross cutting concerns, auth, exceptions, enums)&lt;/div&gt;" style="rounded=0;whiteSpace=wrap;html=1;fillColor=#fff2cc;strokeColor=#d6b656;" vertex="1" parent="1">
          <mxGeometry x="450" y="230" width="110" height="220" as="geometry" />
        </mxCell>
        <mxCell id="0SNLVS-Lxyv-NRHsZCsf-34" value="" style="edgeStyle=orthogonalEdgeStyle;rounded=0;orthogonalLoop=1;jettySize=auto;html=1;" edge="1" parent="1" source="0SNLVS-Lxyv-NRHsZCsf-20" target="0SNLVS-Lxyv-NRHsZCsf-18">
          <mxGeometry relative="1" as="geometry" />
        </mxCell>
        <mxCell id="0SNLVS-Lxyv-NRHsZCsf-20" value="External" style="rounded=0;whiteSpace=wrap;html=1;fillColor=#fff2cc;strokeColor=#d6b656;" vertex="1" parent="1">
          <mxGeometry x="120" y="400" width="280" height="60" as="geometry" />
        </mxCell>
        <mxCell id="0SNLVS-Lxyv-NRHsZCsf-24" value="" style="edgeStyle=orthogonalEdgeStyle;rounded=0;orthogonalLoop=1;jettySize=auto;html=1;" edge="1" parent="1" source="0SNLVS-Lxyv-NRHsZCsf-21" target="0SNLVS-Lxyv-NRHsZCsf-20">
          <mxGeometry relative="1" as="geometry" />
        </mxCell>
        <mxCell id="0SNLVS-Lxyv-NRHsZCsf-21" value="DB" style="shape=cylinder3;whiteSpace=wrap;html=1;boundedLbl=1;backgroundOutline=1;size=15;" vertex="1" parent="1">
          <mxGeometry x="90" y="520" width="60" height="80" as="geometry" />
        </mxCell>
        <mxCell id="0SNLVS-Lxyv-NRHsZCsf-25" value="" style="edgeStyle=orthogonalEdgeStyle;rounded=0;orthogonalLoop=1;jettySize=auto;html=1;" edge="1" parent="1" source="0SNLVS-Lxyv-NRHsZCsf-23" target="0SNLVS-Lxyv-NRHsZCsf-20">
          <mxGeometry relative="1" as="geometry" />
        </mxCell>
        <mxCell id="0SNLVS-Lxyv-NRHsZCsf-23" value="SMS Messaging" style="ellipse;shape=cloud;whiteSpace=wrap;html=1;" vertex="1" parent="1">
          <mxGeometry x="190" y="520" width="140" height="80" as="geometry" />
        </mxCell>
        <mxCell id="0SNLVS-Lxyv-NRHsZCsf-26" value="FBMAS Software Architecture" style="text;html=1;align=center;verticalAlign=middle;whiteSpace=wrap;rounded=0;fontStyle=1;fontSize=20;" vertex="1" parent="1">
          <mxGeometry x="80" y="40" width="360" height="30" as="geometry" />
        </mxCell>
        <mxCell id="0SNLVS-Lxyv-NRHsZCsf-29" value="Legend" style="text;html=1;align=center;verticalAlign=middle;whiteSpace=wrap;rounded=0;fontStyle=1" vertex="1" parent="1">
          <mxGeometry x="480" y="50" width="60" height="30" as="geometry" />
        </mxCell>
        <mxCell id="0SNLVS-Lxyv-NRHsZCsf-41" style="edgeStyle=orthogonalEdgeStyle;rounded=0;orthogonalLoop=1;jettySize=auto;html=1;entryX=0.5;entryY=1;entryDx=0;entryDy=0;" edge="1" parent="1" source="0SNLVS-Lxyv-NRHsZCsf-39" target="0SNLVS-Lxyv-NRHsZCsf-20">
          <mxGeometry relative="1" as="geometry">
            <mxPoint x="260" y="470" as="targetPoint" />
            <Array as="points">
              <mxPoint x="425" y="490" />
              <mxPoint x="261" y="490" />
            </Array>
          </mxGeometry>
        </mxCell>
        <mxCell id="0SNLVS-Lxyv-NRHsZCsf-39" value="Facebook&lt;div&gt;Marketplace&lt;/div&gt;&lt;div&gt;Website&lt;/div&gt;" style="ellipse;shape=cloud;whiteSpace=wrap;html=1;" vertex="1" parent="1">
          <mxGeometry x="365" y="520" width="120" height="80" as="geometry" />
        </mxCell>
      </root>
    </mxGraphModel>
  </diagram>
</mxfile>
